<?xml version="1.0" encoding="UTF-8"?>
<svg width="32" height="32" viewBox="0 0 24 24" fill="none" xmlns="http://www.w3.org/2000/svg">
  <defs>
    <linearGradient id="gradient" x1="0%" y1="0%" x2="100%" y2="100%">
      <stop offset="0%" style="stop-color:#ec4899" />
      <stop offset="100%" style="stop-color:#8b5cf6" />
    </linearGradient>
  </defs>
  <path d="M6 12h4m-2-2v4M15 11h.01M18 11h.01M17.32 5H6.68a4 4 0 00-3.978 3.59c-.006.052-.01.104-.01.156V18c0 1.12.608 2.127 1.523 2.634A2.66 2.66 0 005.68 21h12.64c.465 0 .91-.118 1.3-.319.42-.219.797-.54 1.093-.935.476-.635.75-1.453.75-2.327V8.254c0-.052-.004-.104-.01-.156A4 4 0 0017.32 5z" stroke="url(#gradient)" stroke-width="2" stroke-linecap="round" stroke-linejoin="round"/>
</svg>